{"glyphs":{"0":{"ha":1042,"x_min":87,"x_max":955,"o":"m 955 253 l 955 615 q 878 792 955 715 q 701 868 802 868 l 342 868 q 163 793 240 868 q 87 615 87 717 l 87 253 q 163 76 87 153 q 342 0 240 0 l 701 0 q 879 76 804 0 q 955 253 955 153 m 781 259 q 756 200 781 226 q 698 174 731 174 l 345 174 q 286 199 311 174 q 260 259 260 224 l 260 609 q 286 669 260 644 q 345 694 313 694 l 698 694 q 756 669 731 694 q 781 609 781 644 l 781 259 "},"1":{"ha":347,"x_min":87,"x_max":260,"o":"m 260 0 l 260 868 l 87 868 l 87 0 l 260 0 "},"2":{"ha":1042,"x_min":87,"x_max":955,"o":"m 87 694 l 87 868 l 955 868 l 955 601 q 878 424 955 500 q 701 347 802 347 l 345 347 q 286 322 311 347 q 260 262 260 297 l 260 174 l 955 174 l 955 0 l 87 0 l 87 267 q 162 445 87 370 q 340 521 238 521 l 696 521 q 756 547 731 521 q 781 606 781 573 l 781 694 l 87 694 "},"3":{"ha":1042,"x_min":87,"x_max":955,"o":"m 955 253 l 955 267 q 889 434 955 359 q 955 615 955 509 q 878 792 955 715 q 701 868 802 868 l 87 868 l 87 694 l 696 694 q 757 668 733 694 q 781 606 781 642 q 755 547 781 573 q 696 521 729 521 l 174 521 l 260 347 l 696 347 q 756 320 731 347 q 781 259 781 293 q 756 200 781 226 q 696 174 731 174 l 87 174 l 87 0 l 701 0 q 879 76 804 0 q 955 253 955 153 "},"4":{"ha":1042,"x_min":87,"x_max":955,"o":"m 955 0 l 955 868 l 781 868 l 781 521 l 345 521 q 286 546 311 521 q 260 606 260 571 l 260 868 l 87 868 l 87 601 q 163 423 87 498 q 340 347 240 347 l 781 347 l 781 0 l 955 0 "},"5":{"ha":1042,"x_min":87,"x_max":955,"o":"m 87 615 q 163 793 87 717 q 340 868 240 868 l 955 868 l 955 694 l 345 694 q 286 669 311 694 q 260 609 260 644 l 260 521 l 955 521 l 955 253 q 878 76 955 153 q 701 0 802 0 l 87 0 l 87 174 l 696 174 q 756 200 731 174 q 781 259 781 226 l 781 347 l 87 347 l 87 615 "},"6":{"ha":1042,"x_min":87,"x_max":955,"o":"m 955 252 l 955 266 q 879 444 955 368 q 701 519 804 519 l 347 519 l 434 345 l 696 345 q 756 320 731 345 q 781 260 781 295 q 757 199 781 226 q 696 172 733 172 l 345 172 q 286 198 313 172 q 260 257 260 224 l 260 608 q 286 668 260 642 q 345 693 311 693 l 955 693 l 955 866 l 340 866 q 163 791 240 866 q 87 613 87 715 l 87 252 q 163 75 87 151 q 340 -2 240 -2 l 701 -2 q 878 75 802 -2 q 955 252 955 151 "},"7":{"ha":1042,"x_min":87,"x_max":955,"o":"m 955 0 l 955 615 q 879 793 955 717 q 701 868 804 868 l 87 868 l 87 694 l 698 694 q 756 669 731 694 q 781 609 781 644 l 781 0 l 955 0 m 694 521 l 87 521 l 87 347 l 608 347 l 694 521 "},"8":{"ha":1042,"x_min":87,"x_max":955,"o":"m 955 252 q 889 432 955 359 q 955 599 955 505 l 955 613 q 879 791 955 715 q 701 866 804 866 l 340 866 q 163 791 240 866 q 87 613 87 715 q 153 432 87 505 q 87 266 87 359 l 87 252 q 163 75 87 151 q 340 -2 240 -2 l 701 -2 q 878 75 802 -2 q 955 252 955 151 m 781 608 q 758 548 781 576 q 701 519 734 519 l 340 519 q 286 546 311 519 q 260 604 260 573 q 285 667 260 641 q 345 693 309 693 l 696 693 q 756 668 731 693 q 781 608 781 642 m 781 257 q 756 198 781 224 q 696 172 731 172 l 345 172 q 285 199 309 172 q 260 260 260 226 q 286 320 260 295 q 345 345 313 345 l 696 345 q 701 345 700 345 q 759 318 736 344 q 781 257 781 292 "},"9":{"ha":1042,"x_min":87,"x_max":955,"o":"m 955 253 l 955 615 q 878 792 955 715 q 701 868 802 868 l 342 868 q 163 793 240 868 q 87 615 87 717 l 87 601 q 163 423 87 498 q 342 347 240 347 l 608 347 l 694 521 l 345 521 q 286 546 311 521 q 260 606 260 571 q 285 668 260 642 q 345 694 309 694 l 698 694 q 756 669 731 694 q 781 609 781 644 l 781 259 q 756 200 781 226 q 698 174 731 174 l 87 174 l 87 0 l 701 0 q 879 76 804 0 q 955 253 955 153 "}," ":{"ha":868,"x_min":0,"x_max":0,"o":""},"!":{"ha":347,"x_min":87,"x_max":260,"o":"m 87 868 l 260 868 l 260 260 l 87 260 l 87 868 m 174 174 q 235 148 210 174 q 260 87 260 123 q 235 25 260 50 q 174 0 210 0 q 112 25 137 0 q 87 87 87 50 q 112 148 87 123 q 174 174 137 174 "},"\"":{"ha":608,"x_min":87,"x_max":521,"o":"m 521 694 l 521 868 l 347 868 l 347 694 q 372 633 347 658 q 434 608 398 608 q 496 633 470 608 q 521 694 521 658 m 260 694 l 260 868 l 87 868 l 87 694 q 112 633 87 658 q 174 608 137 608 q 235 633 210 608 q 260 694 260 658 "},"#":{"ha":1042,"x_min":0,"x_max":0,"o":""},"$":{"ha":1042,"x_min":87,"x_max":955,"o":"m 955 253 l 955 521 l 608 521 l 608 694 l 955 694 l 955 868 l 608 868 l 608 1042 l 434 1042 l 434 868 l 340 868 q 162 793 238 868 q 87 615 87 717 l 87 347 l 434 347 l 434 174 l 87 174 l 87 0 l 434 0 l 434 -174 l 608 -174 l 608 0 l 701 0 q 878 76 802 0 q 955 253 955 153 m 434 521 l 260 521 l 260 609 q 286 669 260 644 q 345 694 311 694 l 434 694 l 434 521 m 781 259 q 756 200 781 226 q 696 174 731 174 l 608 174 l 608 347 l 781 347 l 781 259 "},"%":{"ha":1042,"x_min":0,"x_max":0,"o":""},"&":{"ha":1042,"x_min":87,"x_max":955,"o":"m 955 253 l 955 521 l 521 521 l 608 347 l 781 347 l 781 259 q 756 200 781 226 q 698 174 731 174 l 345 174 q 285 201 309 174 q 260 262 260 227 q 286 322 260 297 q 345 347 311 347 l 434 347 l 434 521 l 345 521 q 286 546 313 521 q 260 609 260 571 q 286 669 260 644 q 345 694 311 694 l 781 694 l 781 868 l 342 868 q 162 793 238 868 q 87 615 87 717 l 87 601 q 153 434 87 509 q 87 253 87 361 q 163 76 87 151 q 342 0 240 0 l 701 0 q 878 76 802 0 q 955 253 955 153 "},"'":{"ha":347,"x_min":87,"x_max":260,"o":"m 260 694 l 260 868 l 87 868 l 87 694 q 112 633 87 658 q 174 608 137 608 q 235 633 210 608 q 260 694 260 658 "},"(":{"ha":521,"x_min":87,"x_max":434,"o":"m 434 -87 l 434 87 l 345 87 q 286 112 311 87 q 260 172 260 137 l 260 696 q 286 756 260 731 q 345 781 311 781 l 434 781 l 434 955 l 342 955 q 163 879 240 955 q 87 701 87 804 l 87 167 q 163 -11 87 64 q 342 -87 240 -87 l 434 -87 "},")":{"ha":521,"x_min":87,"x_max":434,"o":"m 87 -87 l 87 87 l 175 87 q 235 112 210 87 q 260 172 260 137 l 260 696 q 235 756 260 731 q 175 781 210 781 l 87 781 l 87 955 l 181 955 q 358 879 281 955 q 434 701 434 804 l 434 167 q 358 -11 434 64 q 181 -87 281 -87 l 87 -87 "},"*":{"ha":868,"x_min":127,"x_max":741,"o":"m 741 618 l 618 741 l 434 557 l 250 741 l 127 618 l 311 434 l 127 250 l 250 127 l 434 311 l 618 127 l 741 250 l 557 434 l 741 618 "},"+":{"ha":868,"x_min":87,"x_max":781,"o":"m 781 347 l 781 521 l 521 521 l 521 781 l 347 781 l 347 521 l 87 521 l 87 347 l 347 347 l 347 87 l 521 87 l 521 347 l 781 347 "},",":{"ha":347,"x_min":87,"x_max":260,"o":"m 260 0 l 260 174 l 87 174 l 87 0 q 112 -62 87 -36 q 174 -87 137 -87 q 235 -62 210 -87 q 260 0 260 -36 "},"-":{"ha":1042,"x_min":174,"x_max":868,"o":"m 868 347 l 868 521 l 174 521 l 174 347 l 868 347 "},"‐":{"ha":1042,"x_min":174,"x_max":868,"o":"m 868 347 l 174 347 l 174 521 l 868 521 l 868 347 "},".":{"ha":347,"x_min":87,"x_max":260,"o":"m 260 87 q 235 148 260 123 q 174 174 210 174 q 112 148 137 174 q 87 87 87 123 q 112 25 87 50 q 174 0 137 0 q 235 25 210 0 q 260 87 260 50 "},"/":{"ha":521,"x_min":87,"x_max":434,"o":"m 434 955 l 260 955 l 87 -87 l 260 -87 l 434 955 "},":":{"ha":347,"x_min":87,"x_max":260,"o":"m 260 434 q 235 496 260 470 q 174 521 210 521 q 112 496 137 521 q 87 434 87 470 q 112 372 87 398 q 174 347 137 347 q 235 372 210 347 q 260 434 260 398 m 260 87 q 235 148 260 123 q 174 174 210 174 q 112 148 137 174 q 87 87 87 123 q 112 25 87 50 q 174 0 137 0 q 235 25 210 0 q 260 87 260 50 "},";":{"ha":347,"x_min":87,"x_max":260,"o":"m 260 434 q 235 496 260 470 q 174 521 210 521 q 112 496 137 521 q 87 434 87 470 q 112 372 87 398 q 174 347 137 347 q 235 372 210 347 q 260 434 260 398 m 260 0 l 260 174 l 87 174 l 87 0 q 112 -62 87 -36 q 174 -87 137 -87 q 235 -62 210 -87 q 260 0 260 -36 "},"<":{"ha":694,"x_min":87,"x_max":608,"o":"m 608 0 l 608 174 l 260 347 l 608 521 l 608 694 l 87 434 l 87 260 l 608 0 "},"=":{"ha":868,"x_min":87,"x_max":781,"o":"m 781 521 l 781 694 l 87 694 l 87 521 l 781 521 m 781 174 l 781 347 l 87 347 l 87 174 l 781 174 "},">":{"ha":694,"x_min":87,"x_max":608,"o":"m 87 0 l 87 174 l 434 347 l 87 521 l 87 694 l 608 434 l 608 260 l 87 0 "},"?":{"ha":1042,"x_min":87,"x_max":955,"o":"m 701 868 q 879 793 804 868 q 955 615 955 717 l 955 601 q 878 424 955 500 q 701 347 802 347 l 521 347 l 564 260 l 391 260 l 260 521 l 696 521 q 756 547 731 521 q 781 606 781 573 q 757 668 781 642 q 696 694 733 694 l 87 694 l 87 868 l 701 868 m 434 87 q 459 148 434 123 q 521 174 484 174 q 582 148 557 174 q 608 87 608 123 q 582 25 608 50 q 521 0 557 0 q 459 25 484 0 q 434 87 434 50 "},"@":{"ha":1042,"x_min":0,"x_max":0,"o":""},"A":{"ha":1042,"x_min":87,"x_max":955,"o":"m 955 0 l 955 615 q 878 792 955 715 q 701 868 802 868 l 340 868 q 163 793 240 868 q 87 615 87 717 l 87 0 l 260 0 l 260 609 q 286 669 260 644 q 345 694 311 694 l 696 694 q 756 669 731 694 q 781 609 781 644 l 781 521 l 347 521 l 434 347 l 781 347 l 781 0 l 955 0 "},"B":{"ha":1042,"x_min":87,"x_max":955,"o":"m 955 253 l 955 267 q 889 434 955 359 q 955 615 955 509 q 878 792 955 715 q 701 868 802 868 l 87 868 l 87 0 l 701 0 q 879 76 804 0 q 955 253 955 153 m 781 259 q 756 200 781 226 q 696 174 731 174 l 260 174 l 260 694 l 696 694 q 757 668 733 694 q 781 606 781 642 q 755 547 781 573 q 696 521 729 521 l 347 521 l 434 347 l 696 347 q 756 320 731 347 q 781 259 781 293 "},"C":{"ha":1042,"x_min":87,"x_max":955,"o":"m 955 0 l 955 174 l 345 174 q 286 199 311 174 q 260 259 260 224 l 260 609 q 286 669 260 644 q 345 694 313 694 l 955 694 l 955 868 l 342 868 q 163 793 240 868 q 87 615 87 717 l 87 253 q 163 76 87 153 q 342 0 240 0 l 955 0 "},"D":{"ha":1042,"x_min":87,"x_max":955,"o":"m 955 253 l 955 615 q 878 792 955 715 q 701 868 802 868 l 87 868 l 87 0 l 701 0 q 879 76 804 0 q 955 253 955 153 m 781 259 q 756 200 781 226 q 696 174 731 174 l 260 174 l 260 694 l 696 694 q 756 669 731 694 q 781 609 781 644 l 781 259 "},"E":{"ha":1042,"x_min":87,"x_max":955,"o":"m 955 347 l 955 521 l 347 521 l 434 347 l 955 347 m 955 0 l 955 174 l 345 174 q 286 199 311 174 q 260 259 260 224 l 260 694 l 955 694 l 955 868 l 87 868 l 87 253 q 163 76 87 151 q 340 0 240 0 l 955 0 "},"F":{"ha":1042,"x_min":87,"x_max":955,"o":"m 955 347 l 955 521 l 347 521 l 434 347 l 955 347 m 955 694 l 955 868 l 340 868 q 163 793 240 868 q 87 615 87 717 l 87 0 l 260 0 l 260 609 q 286 669 260 644 q 345 694 311 694 l 955 694 "},"G":{"ha":1042,"x_min":87,"x_max":955,"o":"m 955 253 l 955 521 l 347 521 l 434 347 l 781 347 l 781 259 q 756 200 781 226 q 698 174 731 174 l 345 174 q 286 199 311 174 q 260 259 260 224 l 260 609 q 286 669 260 644 q 345 694 313 694 l 955 694 l 955 868 l 342 868 q 163 793 240 868 q 87 615 87 717 l 87 253 q 163 76 87 153 q 342 0 240 0 l 701 0 q 878 76 802 0 q 955 253 955 153 "},"H":{"ha":1042,"x_min":87,"x_max":955,"o":"m 955 0 l 955 868 l 781 868 l 781 521 l 347 521 l 434 347 l 781 347 l 781 0 l 955 0 m 260 0 l 260 868 l 87 868 l 87 0 l 260 0 "},"I":{"ha":347,"x_min":87,"x_max":260,"o":"m 260 0 l 260 868 l 87 868 l 87 0 l 260 0 "},"J":{"ha":1042,"x_min":87,"x_max":955,"o":"m 955 253 l 955 868 l 260 868 l 347 694 l 781 694 l 781 259 q 756 200 781 226 q 696 174 731 174 l 87 174 l 87 0 l 701 0 q 879 76 804 0 q 955 253 955 151 "},"K":{"ha":1042,"x_min":87,"x_max":955,"o":"m 955 0 l 955 267 q 878 444 955 368 q 701 521 802 521 l 608 521 l 781 868 l 608 868 l 347 347 l 696 347 q 756 322 731 347 q 781 262 781 297 l 781 0 l 955 0 m 260 0 l 260 868 l 87 868 l 87 0 l 260 0 "},"L":{"ha":1042,"x_min":87,"x_max":955,"o":"m 955 0 l 955 174 l 345 174 q 286 199 311 174 q 260 259 260 224 l 260 868 l 87 868 l 87 253 q 163 76 87 151 q 340 0 240 0 l 955 0 "},"M":{"ha":1389,"x_min":87,"x_max":1302,"o":"m 1302 0 l 1302 615 q 1227 793 1302 717 q 1049 868 1151 868 l 340 868 q 163 793 240 868 q 87 615 87 717 l 87 0 l 260 0 l 260 609 q 286 669 260 644 q 345 694 311 694 l 608 694 l 608 0 l 781 0 l 781 694 l 1043 694 q 1103 669 1078 694 q 1128 609 1128 644 l 1128 0 l 1302 0 "},"N":{"ha":1042,"x_min":87,"x_max":955,"o":"m 955 0 l 955 615 q 879 793 955 717 q 701 868 804 868 l 87 868 l 87 0 l 260 0 l 260 694 l 696 694 q 756 669 731 694 q 781 609 781 644 l 781 0 l 955 0 "},"O":{"ha":1042,"x_min":87,"x_max":955,"o":"m 955 253 l 955 615 q 878 792 955 715 q 701 868 802 868 l 342 868 q 163 793 240 868 q 87 615 87 717 l 87 253 q 163 76 87 153 q 342 0 240 0 l 701 0 q 879 76 804 0 q 955 253 955 153 m 781 259 q 756 200 781 226 q 698 174 731 174 l 345 174 q 286 199 311 174 q 260 259 260 224 l 260 609 q 286 669 260 644 q 345 694 313 694 l 698 694 q 756 669 731 694 q 781 609 781 644 l 781 259 "},"P":{"ha":1042,"x_min":87,"x_max":955,"o":"m 955 615 l 955 601 q 879 424 955 500 q 701 347 804 347 l 434 347 l 347 521 l 696 521 q 755 547 729 521 q 781 606 781 573 q 757 668 781 642 q 696 694 733 694 l 260 694 l 260 0 l 87 0 l 87 868 l 701 868 q 878 792 802 868 q 955 615 955 715 "},"Q":{"ha":1042,"x_min":87,"x_max":955,"o":"m 342 868 q 163 793 240 868 q 87 615 87 717 l 87 253 q 163 76 87 153 q 342 0 240 0 l 521 0 l 608 -174 l 781 -174 l 694 0 l 701 0 q 879 76 804 0 q 955 253 955 153 l 955 615 q 878 792 955 715 q 701 868 802 868 l 342 868 m 260 609 q 286 669 260 644 q 345 694 313 694 l 698 694 q 756 669 731 694 q 781 609 781 644 l 781 259 q 756 200 781 226 q 698 174 731 174 l 608 174 l 521 347 l 347 347 l 434 174 l 345 174 q 286 199 311 174 q 260 259 260 224 l 260 609 "},"R":{"ha":1042,"x_min":87,"x_max":955,"o":"m 781 606 q 757 668 781 642 q 696 694 733 694 l 260 694 l 260 0 l 87 0 l 87 868 l 701 868 q 878 792 802 868 q 955 615 955 715 l 955 601 q 879 424 955 500 q 701 347 804 347 l 608 347 l 781 0 l 608 0 l 347 521 l 696 521 q 755 547 729 521 q 781 606 781 573 "},"S":{"ha":1042,"x_min":87,"x_max":955,"o":"m 87 615 q 163 793 87 717 q 340 868 240 868 l 955 868 l 955 694 l 345 694 q 286 669 311 694 q 260 609 260 644 l 260 521 l 955 521 l 955 253 q 878 76 955 153 q 701 0 802 0 l 87 0 l 87 174 l 696 174 q 756 200 731 174 q 781 259 781 226 l 781 347 l 87 347 l 87 615 "},"T":{"ha":1042,"x_min":87,"x_max":955,"o":"m 87 694 l 87 868 l 955 868 l 955 694 l 608 694 l 608 0 l 434 0 l 434 694 l 87 694 "},"U":{"ha":1042,"x_min":87,"x_max":955,"o":"m 781 868 l 955 868 l 955 0 l 340 0 q 163 76 240 0 q 87 253 87 151 l 87 868 l 260 868 l 260 259 q 286 199 260 224 q 345 174 311 174 l 781 174 l 781 868 "},"V":{"ha":1042,"x_min":87,"x_max":955,"o":"m 260 868 l 87 868 l 434 0 l 608 0 l 955 868 l 781 868 l 521 174 l 260 868 "},"W":{"ha":1389,"x_min":87,"x_max":1302,"o":"m 1302 868 l 1302 253 q 1227 76 1302 151 q 1049 0 1151 0 l 340 0 q 163 76 240 0 q 87 253 87 151 l 87 868 l 260 868 l 260 259 q 286 199 260 224 q 345 174 311 174 l 608 174 l 608 868 l 781 868 l 781 174 l 1043 174 q 1103 199 1078 174 q 1128 259 1128 224 l 1128 868 l 1302 868 "},"X":{"ha":1042,"x_min":87,"x_max":955,"o":"m 87 868 l 87 601 q 155 434 87 507 q 87 267 87 361 l 87 0 l 260 0 l 260 262 q 286 320 260 293 q 342 347 311 347 l 701 347 q 756 320 731 347 q 781 262 781 293 l 781 0 l 955 0 l 955 267 q 889 434 955 359 q 955 601 955 509 l 955 868 l 781 868 l 781 606 q 757 548 781 575 q 701 521 733 521 l 342 521 q 286 548 311 521 q 260 606 260 575 l 260 868 l 87 868 "},"Y":{"ha":1042,"x_min":87,"x_max":955,"o":"m 87 868 l 260 868 l 260 606 q 286 546 260 571 q 345 521 311 521 l 696 521 q 756 547 731 521 q 781 606 781 573 l 781 868 l 955 868 l 955 601 q 878 424 955 500 q 701 347 802 347 l 608 347 l 608 0 l 434 0 l 434 347 l 340 347 q 163 423 240 347 q 87 601 87 498 l 87 868 "},"Z":{"ha":1042,"x_min":87,"x_max":955,"o":"m 87 694 l 87 868 l 955 868 l 955 601 q 878 424 955 500 q 701 347 802 347 l 345 347 q 286 322 311 347 q 260 262 260 297 l 260 174 l 955 174 l 955 0 l 87 0 l 87 267 q 162 445 87 370 q 340 521 238 521 l 696 521 q 756 547 731 521 q 781 606 781 573 l 781 694 l 87 694 "},"[":{"ha":521,"x_min":87,"x_max":434,"o":"m 434 -87 l 434 87 l 260 87 l 260 781 l 434 781 l 434 955 l 87 955 l 87 -87 l 434 -87 "},"\\":{"ha":521,"x_min":87,"x_max":434,"o":"m 87 955 l 260 955 l 434 -87 l 260 -87 l 87 955 "},"]":{"ha":521,"x_min":87,"x_max":434,"o":"m 87 -87 l 87 87 l 260 87 l 260 781 l 87 781 l 87 955 l 434 955 l 434 -87 l 87 -87 "},"^":{"ha":868,"x_min":87,"x_max":781,"o":"m 781 608 l 521 868 l 347 868 l 87 608 l 260 608 l 391 738 l 477 738 l 608 608 l 781 608 "},"_":{"ha":1042,"x_min":87,"x_max":955,"o":"m 955 0 l 955 174 l 87 174 l 87 0 l 955 0 "},"`":{"ha":347,"x_min":87,"x_max":260,"o":"m 260 694 l 260 868 l 87 868 l 87 694 q 112 633 87 658 q 174 608 137 608 q 235 633 210 608 q 260 694 260 658 "},"a":{"ha":1042,"x_min":87,"x_max":955,"o":"m 955 0 l 955 615 q 878 792 955 715 q 701 868 802 868 l 340 868 q 163 793 240 868 q 87 615 87 717 l 87 0 l 260 0 l 260 609 q 286 669 260 644 q 345 694 311 694 l 696 694 q 756 669 731 694 q 781 609 781 644 l 781 521 l 347 521 l 434 347 l 781 347 l 781 0 l 955 0 "},"b":{"ha":1042,"x_min":87,"x_max":955,"o":"m 955 253 l 955 267 q 889 434 955 359 q 955 615 955 509 q 878 792 955 715 q 701 868 802 868 l 87 868 l 87 0 l 701 0 q 879 76 804 0 q 955 253 955 153 m 781 259 q 756 200 781 226 q 696 174 731 174 l 260 174 l 260 694 l 696 694 q 757 668 733 694 q 781 606 781 642 q 755 547 781 573 q 696 521 729 521 l 347 521 l 434 347 l 696 347 q 756 320 731 347 q 781 259 781 293 "},"c":{"ha":1042,"x_min":87,"x_max":955,"o":"m 955 0 l 955 174 l 345 174 q 286 199 311 174 q 260 259 260 224 l 260 609 q 286 669 260 644 q 345 694 313 694 l 955 694 l 955 868 l 342 868 q 163 793 240 868 q 87 615 87 717 l 87 253 q 163 76 87 153 q 342 0 240 0 l 955 0 "},"d":{"ha":1042,"x_min":87,"x_max":955,"o":"m 955 253 l 955 615 q 878 792 955 715 q 701 868 802 868 l 87 868 l 87 0 l 701 0 q 879 76 804 0 q 955 253 955 153 m 781 259 q 756 200 781 226 q 696 174 731 174 l 260 174 l 260 694 l 696 694 q 756 669 731 694 q 781 609 781 644 l 781 259 "},"e":{"ha":1042,"x_min":87,"x_max":955,"o":"m 955 347 l 955 521 l 347 521 l 434 347 l 955 347 m 955 0 l 955 174 l 345 174 q 286 199 311 174 q 260 259 260 224 l 260 694 l 955 694 l 955 868 l 87 868 l 87 253 q 163 76 87 151 q 340 0 240 0 l 955 0 "},"f":{"ha":1042,"x_min":87,"x_max":955,"o":"m 955 347 l 955 521 l 347 521 l 434 347 l 955 347 m 955 694 l 955 868 l 340 868 q 163 793 240 868 q 87 615 87 717 l 87 0 l 260 0 l 260 609 q 286 669 260 644 q 345 694 311 694 l 955 694 "},"g":{"ha":1042,"x_min":87,"x_max":955,"o":"m 955 253 l 955 521 l 347 521 l 434 347 l 781 347 l 781 259 q 756 200 781 226 q 698 174 731 174 l 345 174 q 286 199 311 174 q 260 259 260 224 l 260 609 q 286 669 260 644 q 345 694 313 694 l 955 694 l 955 868 l 342 868 q 163 793 240 868 q 87 615 87 717 l 87 253 q 163 76 87 153 q 342 0 240 0 l 701 0 q 878 76 802 0 q 955 253 955 153 "},"h":{"ha":1042,"x_min":87,"x_max":955,"o":"m 955 0 l 955 868 l 781 868 l 781 521 l 347 521 l 434 347 l 781 347 l 781 0 l 955 0 m 260 0 l 260 868 l 87 868 l 87 0 l 260 0 "},"i":{"ha":347,"x_min":87,"x_max":260,"o":"m 260 0 l 260 868 l 87 868 l 87 0 l 260 0 "},"j":{"ha":1042,"x_min":87,"x_max":955,"o":"m 955 253 l 955 868 l 260 868 l 347 694 l 781 694 l 781 259 q 756 200 781 226 q 696 174 731 174 l 87 174 l 87 0 l 701 0 q 879 76 804 0 q 955 253 955 151 "},"k":{"ha":1042,"x_min":87,"x_max":955,"o":"m 955 0 l 955 267 q 878 444 955 368 q 701 521 802 521 l 608 521 l 781 868 l 608 868 l 347 347 l 696 347 q 756 322 731 347 q 781 262 781 297 l 781 0 l 955 0 m 260 0 l 260 868 l 87 868 l 87 0 l 260 0 "},"l":{"ha":1042,"x_min":87,"x_max":955,"o":"m 955 0 l 955 174 l 345 174 q 286 199 311 174 q 260 259 260 224 l 260 868 l 87 868 l 87 253 q 163 76 87 151 q 340 0 240 0 l 955 0 "},"m":{"ha":1389,"x_min":87,"x_max":1302,"o":"m 1302 0 l 1302 615 q 1227 793 1302 717 q 1049 868 1151 868 l 340 868 q 163 793 240 868 q 87 615 87 717 l 87 0 l 260 0 l 260 609 q 286 669 260 644 q 345 694 311 694 l 608 694 l 608 0 l 781 0 l 781 694 l 1043 694 q 1103 669 1078 694 q 1128 609 1128 644 l 1128 0 l 1302 0 "},"n":{"ha":1042,"x_min":87,"x_max":955,"o":"m 955 0 l 955 615 q 879 793 955 717 q 701 868 804 868 l 87 868 l 87 0 l 260 0 l 260 694 l 696 694 q 756 669 731 694 q 781 609 781 644 l 781 0 l 955 0 "},"o":{"ha":1042,"x_min":87,"x_max":955,"o":"m 955 253 l 955 615 q 878 792 955 715 q 701 868 802 868 l 342 868 q 163 793 240 868 q 87 615 87 717 l 87 253 q 163 76 87 153 q 342 0 240 0 l 701 0 q 879 76 804 0 q 955 253 955 153 m 781 259 q 756 200 781 226 q 698 174 731 174 l 345 174 q 286 199 311 174 q 260 259 260 224 l 260 609 q 286 669 260 644 q 345 694 313 694 l 698 694 q 756 669 731 694 q 781 609 781 644 l 781 259 "},"p":{"ha":1042,"x_min":87,"x_max":955,"o":"m 955 615 l 955 601 q 879 424 955 500 q 701 347 804 347 l 434 347 l 347 521 l 696 521 q 755 547 729 521 q 781 606 781 573 q 757 668 781 642 q 696 694 733 694 l 260 694 l 260 0 l 87 0 l 87 868 l 701 868 q 878 792 802 868 q 955 615 955 715 "},"q":{"ha":1042,"x_min":87,"x_max":955,"o":"m 342 868 q 163 793 240 868 q 87 615 87 717 l 87 253 q 163 76 87 153 q 342 0 240 0 l 521 0 l 608 -174 l 781 -174 l 694 0 l 701 0 q 879 76 804 0 q 955 253 955 153 l 955 615 q 878 792 955 715 q 701 868 802 868 l 342 868 m 260 609 q 286 669 260 644 q 345 694 313 694 l 698 694 q 756 669 731 694 q 781 609 781 644 l 781 259 q 756 200 781 226 q 698 174 731 174 l 608 174 l 521 347 l 347 347 l 434 174 l 345 174 q 286 199 311 174 q 260 259 260 224 l 260 609 "},"r":{"ha":1042,"x_min":87,"x_max":955,"o":"m 781 606 q 757 668 781 642 q 696 694 733 694 l 260 694 l 260 0 l 87 0 l 87 868 l 701 868 q 878 792 802 868 q 955 615 955 715 l 955 601 q 879 424 955 500 q 701 347 804 347 l 608 347 l 781 0 l 608 0 l 347 521 l 696 521 q 755 547 729 521 q 781 606 781 573 "},"s":{"ha":1042,"x_min":87,"x_max":955,"o":"m 87 615 q 163 793 87 717 q 340 868 240 868 l 955 868 l 955 694 l 345 694 q 286 669 311 694 q 260 609 260 644 l 260 521 l 955 521 l 955 253 q 878 76 955 153 q 701 0 802 0 l 87 0 l 87 174 l 696 174 q 756 200 731 174 q 781 259 781 226 l 781 347 l 87 347 l 87 615 "},"t":{"ha":1042,"x_min":87,"x_max":955,"o":"m 87 694 l 87 868 l 955 868 l 955 694 l 608 694 l 608 0 l 434 0 l 434 694 l 87 694 "},"u":{"ha":1042,"x_min":87,"x_max":955,"o":"m 781 868 l 955 868 l 955 0 l 340 0 q 163 76 240 0 q 87 253 87 151 l 87 868 l 260 868 l 260 259 q 286 199 260 224 q 345 174 311 174 l 781 174 l 781 868 "},"v":{"ha":1042,"x_min":87,"x_max":955,"o":"m 260 868 l 87 868 l 434 0 l 608 0 l 955 868 l 781 868 l 521 174 l 260 868 "},"w":{"ha":1389,"x_min":87,"x_max":1302,"o":"m 1302 868 l 1302 253 q 1227 76 1302 151 q 1049 0 1151 0 l 340 0 q 163 76 240 0 q 87 253 87 151 l 87 868 l 260 868 l 260 259 q 286 199 260 224 q 345 174 311 174 l 608 174 l 608 868 l 781 868 l 781 174 l 1043 174 q 1103 199 1078 174 q 1128 259 1128 224 l 1128 868 l 1302 868 "},"x":{"ha":1042,"x_min":87,"x_max":955,"o":"m 87 868 l 87 601 q 155 434 87 507 q 87 267 87 361 l 87 0 l 260 0 l 260 262 q 286 320 260 293 q 342 347 311 347 l 701 347 q 756 320 731 347 q 781 262 781 293 l 781 0 l 955 0 l 955 267 q 889 434 955 359 q 955 601 955 509 l 955 868 l 781 868 l 781 606 q 757 548 781 575 q 701 521 733 521 l 342 521 q 286 548 311 521 q 260 606 260 575 l 260 868 l 87 868 "},"y":{"ha":1042,"x_min":87,"x_max":955,"o":"m 87 868 l 260 868 l 260 606 q 286 546 260 571 q 345 521 311 521 l 696 521 q 756 547 731 521 q 781 606 781 573 l 781 868 l 955 868 l 955 601 q 878 424 955 500 q 701 347 802 347 l 608 347 l 608 0 l 434 0 l 434 347 l 340 347 q 163 423 240 347 q 87 601 87 498 l 87 868 "},"z":{"ha":1042,"x_min":87,"x_max":955,"o":"m 87 694 l 87 868 l 955 868 l 955 601 q 878 424 955 500 q 701 347 802 347 l 345 347 q 286 322 311 347 q 260 262 260 297 l 260 174 l 955 174 l 955 0 l 87 0 l 87 267 q 162 445 87 370 q 340 521 238 521 l 696 521 q 756 547 731 521 q 781 606 781 573 l 781 694 l 87 694 "},"{":{"ha":1042,"x_min":0,"x_max":0,"o":""},"|":{"ha":1042,"x_min":0,"x_max":0,"o":""},"}":{"ha":1042,"x_min":0,"x_max":0,"o":""},"~":{"ha":757,"x_min":87,"x_max":672,"o":"m 672 762 l 672 884 q 509 800 576 800 q 443 814 481 800 q 382 840 411 828 l 382 840 l 382 840 q 323 861 375 849 q 253 873 271 873 q 87 795 177 873 l 87 672 q 253 759 181 759 q 381 723 299 759 q 507 688 464 688 q 672 762 583 688 "},"¡":{"ha":1042,"x_min":0,"x_max":0,"o":""},"¢":{"ha":1042,"x_min":0,"x_max":0,"o":""},"£":{"ha":1042,"x_min":0,"x_max":0,"o":""},"¤":{"ha":1042,"x_min":0,"x_max":0,"o":""},"¥":{"ha":1042,"x_min":0,"x_max":0,"o":""},"¦":{"ha":1042,"x_min":0,"x_max":0,"o":""},"§":{"ha":1042,"x_min":0,"x_max":0,"o":""},"¨":{"ha":1042,"x_min":0,"x_max":0,"o":""},"©":{"ha":1042,"x_min":0,"x_max":0,"o":""},"ª":{"ha":1042,"x_min":0,"x_max":0,"o":""},"«":{"ha":1042,"x_min":0,"x_max":0,"o":""},"¬":{"ha":1042,"x_min":0,"x_max":0,"o":""},"®":{"ha":1042,"x_min":0,"x_max":0,"o":""},"¯":{"ha":1042,"x_min":0,"x_max":0,"o":""},"ˉ":{"ha":1042,"x_min":0,"x_max":0,"o":""},"°":{"ha":1042,"x_min":0,"x_max":0,"o":""},"±":{"ha":1042,"x_min":0,"x_max":0,"o":""},"²":{"ha":1042,"x_min":0,"x_max":0,"o":""},"³":{"ha":1042,"x_min":0,"x_max":0,"o":""},"´":{"ha":1042,"x_min":0,"x_max":0,"o":""},"µ":{"ha":1042,"x_min":0,"x_max":0,"o":""},"μ":{"ha":1042,"x_min":0,"x_max":0,"o":""},"¶":{"ha":1042,"x_min":0,"x_max":0,"o":""},"·":{"ha":1042,"x_min":0,"x_max":0,"o":""},"∙":{"ha":1042,"x_min":0,"x_max":0,"o":""},"¸":{"ha":1042,"x_min":0,"x_max":0,"o":""},"¹":{"ha":1042,"x_min":0,"x_max":0,"o":""},"º":{"ha":1042,"x_min":0,"x_max":0,"o":""},"»":{"ha":1042,"x_min":0,"x_max":0,"o":""},"¼":{"ha":1042,"x_min":0,"x_max":0,"o":""},"½":{"ha":1042,"x_min":0,"x_max":0,"o":""},"¾":{"ha":1042,"x_min":0,"x_max":0,"o":""},"¿":{"ha":1042,"x_min":87,"x_max":955,"o":"m 340 0 q 162 76 238 0 q 87 253 87 151 l 87 267 q 163 444 87 368 q 340 521 240 521 l 521 521 l 477 608 l 651 608 l 781 347 l 345 347 q 286 321 311 347 q 260 262 260 295 q 285 200 260 226 q 345 174 309 174 l 955 174 l 955 0 l 340 0 m 608 781 q 582 720 608 745 q 521 694 557 694 q 459 720 484 694 q 434 781 434 745 q 459 843 434 818 q 521 868 484 868 q 582 843 557 868 q 608 781 608 818 "},"À":{"ha":1042,"x_min":87,"x_max":955,"o":"m 955 0 l 955 615 q 878 792 955 715 q 701 868 802 868 l 340 868 q 163 793 240 868 q 87 615 87 717 l 87 0 l 260 0 l 260 609 q 286 669 260 644 q 345 694 311 694 l 696 694 q 756 669 731 694 q 781 609 781 644 l 781 521 l 347 521 l 434 347 l 781 347 l 781 0 l 955 0 m 585 1104 l 453 1215 l 340 1082 l 474 970 q 530 950 498 950 q 597 981 571 950 q 616 1036 616 1005 q 585 1104 616 1078 "},"Á":{"ha":1042,"x_min":87,"x_max":955,"o":"m 457 1104 l 589 1215 l 701 1082 l 568 970 q 512 950 543 950 q 444 981 470 950 q 425 1036 425 1005 q 457 1104 425 1078 m 955 0 l 955 615 q 878 792 955 715 q 701 868 802 868 l 340 868 q 163 793 240 868 q 87 615 87 717 l 87 0 l 260 0 l 260 609 q 286 669 260 644 q 345 694 311 694 l 696 694 q 756 669 731 694 q 781 609 781 644 l 781 521 l 347 521 l 434 347 l 781 347 l 781 0 l 955 0 "},"Â":{"ha":1042,"x_min":87,"x_max":955,"o":"m 868 955 l 608 1215 l 434 1215 l 174 955 l 347 955 l 477 1085 l 564 1085 l 694 955 l 868 955 m 955 0 l 955 615 q 878 792 955 715 q 701 868 802 868 l 340 868 q 163 793 240 868 q 87 615 87 717 l 87 0 l 260 0 l 260 609 q 286 669 260 644 q 345 694 311 694 l 696 694 q 756 669 731 694 q 781 609 781 644 l 781 521 l 347 521 l 434 347 l 781 347 l 781 0 l 955 0 "},"Ã":{"ha":1042,"x_min":87,"x_max":955,"o":"m 814 1024 l 814 1146 q 651 1061 719 1061 q 585 1076 623 1061 q 524 1102 554 1090 l 524 1102 l 524 1102 q 465 1122 517 1111 q 396 1134 413 1134 q 229 1056 319 1134 l 229 934 q 396 1021 323 1021 q 523 984 441 1021 q 649 948 606 948 q 814 1024 726 948 m 955 0 l 955 615 q 878 792 955 715 q 701 868 802 868 l 340 868 q 163 793 240 868 q 87 615 87 717 l 87 0 l 260 0 l 260 609 q 286 669 260 644 q 345 694 311 694 l 696 694 q 756 669 731 694 q 781 609 781 644 l 781 521 l 347 521 l 434 347 l 781 347 l 781 0 l 955 0 "},"Ä":{"ha":1042,"x_min":87,"x_max":955,"o":"m 955 1042 q 930 1103 955 1078 q 868 1128 905 1128 q 806 1103 832 1128 q 781 1042 781 1078 q 806 980 781 1005 q 868 955 832 955 q 930 980 905 955 q 955 1042 955 1005 m 260 1042 q 235 1103 260 1078 q 174 1128 210 1128 q 112 1103 137 1128 q 87 1042 87 1078 q 112 980 87 1005 q 174 955 137 955 q 235 980 210 955 q 260 1042 260 1005 m 955 0 l 955 615 q 878 792 955 715 q 701 868 802 868 l 340 868 q 163 793 240 868 q 87 615 87 717 l 87 0 l 260 0 l 260 609 q 286 669 260 644 q 345 694 311 694 l 696 694 q 756 669 731 694 q 781 609 781 644 l 781 521 l 347 521 l 434 347 l 781 347 l 781 0 l 955 0 "},"Å":{"ha":1042,"x_min":87,"x_max":955,"o":"m 608 1042 q 582 1103 608 1078 q 521 1128 557 1128 q 459 1103 484 1128 q 434 1042 434 1078 q 459 980 434 1005 q 521 955 484 955 q 582 981 556 955 q 608 1042 608 1007 m 955 0 l 955 615 q 878 792 955 715 q 701 868 802 868 l 340 868 q 163 793 240 868 q 87 615 87 717 l 87 0 l 260 0 l 260 609 q 286 669 260 644 q 345 694 311 694 l 696 694 q 756 669 731 694 q 781 609 781 644 l 781 521 l 347 521 l 434 347 l 781 347 l 781 0 l 955 0 "},"Æ":{"ha":1389,"x_min":87,"x_max":1302,"o":"m 87 615 q 163 793 87 717 q 340 868 240 868 l 1302 868 l 1302 694 l 781 694 l 781 259 q 806 199 781 224 q 866 174 832 174 l 1302 174 l 1302 0 l 861 0 q 684 76 760 0 q 608 253 608 151 l 608 347 l 434 347 l 347 521 l 608 521 l 608 694 l 345 694 q 286 669 311 694 q 260 609 260 644 l 260 0 l 87 0 l 87 615 m 868 521 l 1302 521 l 1302 347 l 955 347 l 868 521 "},"Ç":{"ha":1042,"x_min":87,"x_max":955,"o":"m 955 0 l 955 174 l 345 174 q 286 199 311 174 q 260 259 260 224 l 260 609 q 286 669 260 644 q 345 694 313 694 l 955 694 l 955 868 l 342 868 q 163 793 240 868 q 87 615 87 717 l 87 253 q 163 76 87 153 q 342 0 240 0 l 955 0 "},"È":{"ha":1042,"x_min":87,"x_max":955,"o":"m 585 1104 l 453 1215 l 340 1082 l 474 970 q 530 950 498 950 q 597 981 571 950 q 616 1036 616 1005 q 585 1104 616 1078 m 955 347 l 955 521 l 347 521 l 434 347 l 955 347 m 955 0 l 955 174 l 345 174 q 286 199 311 174 q 260 259 260 224 l 260 694 l 955 694 l 955 868 l 87 868 l 87 253 q 163 76 87 151 q 340 0 240 0 l 955 0 "},"É":{"ha":1042,"x_min":87,"x_max":955,"o":"m 457 1104 l 589 1215 l 701 1082 l 568 970 q 512 950 543 950 q 444 981 470 950 q 425 1036 425 1005 q 457 1104 425 1078 m 955 347 l 955 521 l 347 521 l 434 347 l 955 347 m 955 0 l 955 174 l 345 174 q 286 199 311 174 q 260 259 260 224 l 260 694 l 955 694 l 955 868 l 87 868 l 87 253 q 163 76 87 151 q 340 0 240 0 l 955 0 "},"Ê":{"ha":1042,"x_min":87,"x_max":955,"o":"m 868 955 l 608 1215 l 434 1215 l 174 955 l 347 955 l 477 1085 l 564 1085 l 694 955 l 868 955 m 955 347 l 955 521 l 347 521 l 434 347 l 955 347 m 955 0 l 955 174 l 345 174 q 286 199 311 174 q 260 259 260 224 l 260 694 l 955 694 l 955 868 l 87 868 l 87 253 q 163 76 87 151 q 340 0 240 0 l 955 0 "},"Ë":{"ha":1042,"x_min":87,"x_max":955,"o":"m 955 1042 q 930 1103 955 1078 q 868 1128 905 1128 q 806 1103 832 1128 q 781 1042 781 1078 q 806 980 781 1005 q 868 955 832 955 q 930 980 905 955 q 955 1042 955 1005 m 260 1042 q 235 1103 260 1078 q 174 1128 210 1128 q 112 1103 137 1128 q 87 1042 87 1078 q 112 980 87 1005 q 174 955 137 955 q 235 980 210 955 q 260 1042 260 1005 m 955 347 l 955 521 l 347 521 l 434 347 l 955 347 m 955 0 l 955 174 l 345 174 q 286 199 311 174 q 260 259 260 224 l 260 694 l 955 694 l 955 868 l 87 868 l 87 253 q 163 76 87 151 q 340 0 240 0 l 955 0 "},"Ì":{"ha":347,"x_min":45,"x_max":321,"o":"m 260 0 l 260 868 l 87 868 l 87 0 l 260 0 m 290 1104 l 158 1215 l 45 1082 l 179 970 q 234 950 203 950 q 302 981 276 950 q 321 1036 321 1005 q 290 1104 321 1078 "},"Í":{"ha":347,"x_min":45,"x_max":321,"o":"m 108 0 l 108 868 l 281 868 l 281 0 l 108 0 m 76 1104 l 210 1215 l 321 1082 l 189 970 q 132 950 165 950 q 66 981 92 950 q 45 1036 45 1005 q 76 1104 45 1078 "},"Î":{"ha":347,"x_min":-174,"x_max":521,"o":"m 260 0 l 260 868 l 87 868 l 87 0 l 260 0 m 521 955 l 260 1215 l 87 1215 l -174 955 l 0 955 l 130 1085 l 217 1085 l 347 955 l 521 955 "},"Ï":{"ha":694,"x_min":87,"x_max":608,"o":"m 434 0 l 434 868 l 260 868 l 260 0 l 434 0 m 608 1042 q 582 1103 608 1078 q 521 1128 557 1128 q 459 1103 484 1128 q 434 1042 434 1078 q 459 980 434 1005 q 521 955 484 955 q 582 980 557 955 q 608 1042 608 1005 m 260 1042 q 235 1103 260 1078 q 174 1128 210 1128 q 112 1103 137 1128 q 87 1042 87 1078 q 112 980 87 1005 q 174 955 137 955 q 235 980 210 955 q 260 1042 260 1005 "},"Ð":{"ha":1042,"x_min":87,"x_max":955,"o":"m 955 253 l 955 615 q 878 792 955 715 q 701 868 802 868 l 87 868 l 87 0 l 701 0 q 879 76 804 0 q 955 253 955 153 m 781 259 q 756 200 781 226 q 696 174 731 174 l 260 174 l 260 694 l 696 694 q 756 669 731 694 q 781 609 781 644 l 781 259 "},"Ñ":{"ha":1042,"x_min":87,"x_max":955,"o":"m 814 1024 l 814 1146 q 651 1061 719 1061 q 585 1076 623 1061 q 524 1102 554 1090 l 524 1102 l 524 1102 q 465 1122 517 1111 q 396 1134 413 1134 q 229 1056 319 1134 l 229 934 q 396 1021 323 1021 q 523 984 441 1021 q 649 948 606 948 q 814 1024 726 948 m 955 0 l 955 615 q 879 793 955 717 q 701 868 804 868 l 87 868 l 87 0 l 260 0 l 260 694 l 696 694 q 756 669 731 694 q 781 609 781 644 l 781 0 l 955 0 "},"Ò":{"ha":1042,"x_min":87,"x_max":955,"o":"m 585 1104 l 453 1215 l 340 1082 l 474 970 q 530 950 498 950 q 597 981 571 950 q 616 1036 616 1005 q 585 1104 616 1078 m 955 253 l 955 615 q 878 792 955 715 q 701 868 802 868 l 342 868 q 163 793 240 868 q 87 615 87 717 l 87 253 q 163 76 87 153 q 342 0 240 0 l 701 0 q 879 76 804 0 q 955 253 955 153 m 781 259 q 756 200 781 226 q 698 174 731 174 l 345 174 q 286 199 311 174 q 260 259 260 224 l 260 609 q 286 669 260 644 q 345 694 313 694 l 698 694 q 756 669 731 694 q 781 609 781 644 l 781 259 "},"Ó":{"ha":1042,"x_min":87,"x_max":955,"o":"m 457 1104 l 589 1215 l 701 1082 l 568 970 q 512 950 543 950 q 444 981 470 950 q 425 1036 425 1005 q 457 1104 425 1078 m 955 253 l 955 615 q 878 792 955 715 q 701 868 802 868 l 342 868 q 163 793 240 868 q 87 615 87 717 l 87 253 q 163 76 87 153 q 342 0 240 0 l 701 0 q 879 76 804 0 q 955 253 955 153 m 781 259 q 756 200 781 226 q 698 174 731 174 l 345 174 q 286 199 311 174 q 260 259 260 224 l 260 609 q 286 669 260 644 q 345 694 313 694 l 698 694 q 756 669 731 694 q 781 609 781 644 l 781 259 "},"Ô":{"ha":1042,"x_min":87,"x_max":955,"o":"m 868 955 l 608 1215 l 434 1215 l 174 955 l 347 955 l 477 1085 l 564 1085 l 694 955 l 868 955 m 955 253 l 955 615 q 878 792 955 715 q 701 868 802 868 l 342 868 q 163 793 240 868 q 87 615 87 717 l 87 253 q 163 76 87 153 q 342 0 240 0 l 701 0 q 879 76 804 0 q 955 253 955 153 m 781 259 q 756 200 781 226 q 698 174 731 174 l 345 174 q 286 199 311 174 q 260 259 260 224 l 260 609 q 286 669 260 644 q 345 694 313 694 l 698 694 q 756 669 731 694 q 781 609 781 644 l 781 259 "},"Õ":{"ha":1042,"x_min":87,"x_max":955,"o":"m 814 1024 l 814 1146 q 651 1061 719 1061 q 585 1076 623 1061 q 524 1102 554 1090 l 524 1102 l 524 1102 q 465 1122 517 1111 q 396 1134 413 1134 q 229 1056 319 1134 l 229 934 q 396 1021 323 1021 q 523 984 441 1021 q 649 948 606 948 q 814 1024 726 948 m 955 253 l 955 615 q 878 792 955 715 q 701 868 802 868 l 342 868 q 163 793 240 868 q 87 615 87 717 l 87 253 q 163 76 87 153 q 342 0 240 0 l 701 0 q 879 76 804 0 q 955 253 955 153 m 781 259 q 756 200 781 226 q 698 174 731 174 l 345 174 q 286 199 311 174 q 260 259 260 224 l 260 609 q 286 669 260 644 q 345 694 313 694 l 698 694 q 756 669 731 694 q 781 609 781 644 l 781 259 "},"Ö":{"ha":1042,"x_min":87,"x_max":955,"o":"m 955 1042 q 930 1103 955 1078 q 868 1128 905 1128 q 806 1103 832 1128 q 781 1042 781 1078 q 806 980 781 1005 q 868 955 832 955 q 930 980 905 955 q 955 1042 955 1005 m 260 1042 q 235 1103 260 1078 q 174 1128 210 1128 q 112 1103 137 1128 q 87 1042 87 1078 q 112 980 87 1005 q 174 955 137 955 q 235 980 210 955 q 260 1042 260 1005 m 955 253 l 955 615 q 878 792 955 715 q 701 868 802 868 l 342 868 q 163 793 240 868 q 87 615 87 717 l 87 253 q 163 76 87 153 q 342 0 240 0 l 701 0 q 879 76 804 0 q 955 253 955 153 m 781 259 q 756 200 781 226 q 698 174 731 174 l 345 174 q 286 199 311 174 q 260 259 260 224 l 260 609 q 286 669 260 644 q 345 694 313 694 l 698 694 q 756 669 731 694 q 781 609 781 644 l 781 259 "},"×":{"ha":868,"x_min":127,"x_max":741,"o":"m 741 618 l 618 741 l 434 557 l 250 741 l 127 618 l 311 434 l 127 250 l 250 127 l 434 311 l 618 127 l 741 250 l 557 434 l 741 618 "},"Ø":{"ha":1042,"x_min":87,"x_max":955,"o":"m 345 694 q 286 669 313 694 q 260 609 260 644 l 260 259 q 267 226 260 241 l 642 694 l 345 694 m 696 174 q 756 200 731 174 q 781 259 781 226 l 781 609 q 774 642 781 625 l 399 174 l 696 174 m 701 868 q 879 792 804 868 q 955 615 955 715 l 955 253 q 879 76 955 153 q 701 0 804 0 l 340 0 q 163 76 240 0 q 87 253 87 153 l 87 615 q 163 793 87 717 q 340 868 240 868 l 701 868 "},"Ù":{"ha":1042,"x_min":87,"x_max":955,"o":"m 585 1104 l 453 1215 l 340 1082 l 474 970 q 530 950 498 950 q 597 981 571 950 q 616 1036 616 1005 q 585 1104 616 1078 m 781 868 l 955 868 l 955 0 l 340 0 q 163 76 240 0 q 87 253 87 151 l 87 868 l 260 868 l 260 259 q 286 199 260 224 q 345 174 311 174 l 781 174 l 781 868 "},"Ú":{"ha":1042,"x_min":87,"x_max":955,"o":"m 457 1104 l 589 1215 l 701 1082 l 568 970 q 512 950 543 950 q 444 981 470 950 q 425 1036 425 1005 q 457 1104 425 1078 m 781 868 l 955 868 l 955 0 l 340 0 q 163 76 240 0 q 87 253 87 151 l 87 868 l 260 868 l 260 259 q 286 199 260 224 q 345 174 311 174 l 781 174 l 781 868 "},"Û":{"ha":1042,"x_min":87,"x_max":955,"o":"m 868 955 l 608 1215 l 434 1215 l 174 955 l 347 955 l 477 1085 l 564 1085 l 694 955 l 868 955 m 781 868 l 955 868 l 955 0 l 340 0 q 163 76 240 0 q 87 253 87 151 l 87 868 l 260 868 l 260 259 q 286 199 260 224 q 345 174 311 174 l 781 174 l 781 868 "},"Ü":{"ha":1042,"x_min":87,"x_max":955,"o":"m 955 1042 q 930 1103 955 1078 q 868 1128 905 1128 q 806 1103 832 1128 q 781 1042 781 1078 q 806 980 781 1005 q 868 955 832 955 q 930 980 905 955 q 955 1042 955 1005 m 260 1042 q 235 1103 260 1078 q 174 1128 210 1128 q 112 1103 137 1128 q 87 1042 87 1078 q 112 980 87 1005 q 174 955 137 955 q 235 980 210 955 q 260 1042 260 1005 m 781 868 l 955 868 l 955 0 l 340 0 q 163 76 240 0 q 87 253 87 151 l 87 868 l 260 868 l 260 259 q 286 199 260 224 q 345 174 311 174 l 781 174 l 781 868 "},"Ý":{"ha":1042,"x_min":87,"x_max":955,"o":"m 457 1104 l 589 1215 l 701 1082 l 568 970 q 512 950 543 950 q 444 981 470 950 q 425 1036 425 1005 q 457 1104 425 1078 m 87 868 l 260 868 l 260 606 q 286 546 260 571 q 345 521 311 521 l 696 521 q 756 547 731 521 q 781 606 781 573 l 781 868 l 955 868 l 955 601 q 878 424 955 500 q 701 347 802 347 l 608 347 l 608 0 l 434 0 l 434 347 l 340 347 q 163 423 240 347 q 87 601 87 498 l 87 868 "},"Þ":{"ha":1042,"x_min":0,"x_max":0,"o":""},"ß":{"ha":1042,"x_min":0,"x_max":0,"o":""},"à":{"ha":1042,"x_min":87,"x_max":955,"o":"m 955 0 l 955 615 q 878 792 955 715 q 701 868 802 868 l 340 868 q 163 793 240 868 q 87 615 87 717 l 87 0 l 260 0 l 260 609 q 286 669 260 644 q 345 694 311 694 l 696 694 q 756 669 731 694 q 781 609 781 644 l 781 521 l 347 521 l 434 347 l 781 347 l 781 0 l 955 0 m 585 1104 l 453 1215 l 340 1082 l 474 970 q 530 950 498 950 q 597 981 571 950 q 616 1036 616 1005 q 585 1104 616 1078 "},"á":{"ha":1042,"x_min":87,"x_max":955,"o":"m 457 1104 l 589 1215 l 701 1082 l 568 970 q 512 950 543 950 q 444 981 470 950 q 425 1036 425 1005 q 457 1104 425 1078 m 955 0 l 955 615 q 878 792 955 715 q 701 868 802 868 l 340 868 q 163 793 240 868 q 87 615 87 717 l 87 0 l 260 0 l 260 609 q 286 669 260 644 q 345 694 311 694 l 696 694 q 756 669 731 694 q 781 609 781 644 l 781 521 l 347 521 l 434 347 l 781 347 l 781 0 l 955 0 "},"â":{"ha":1042,"x_min":87,"x_max":955,"o":"m 868 955 l 608 1215 l 434 1215 l 174 955 l 347 955 l 477 1085 l 564 1085 l 694 955 l 868 955 m 955 0 l 955 615 q 878 792 955 715 q 701 868 802 868 l 340 868 q 163 793 240 868 q 87 615 87 717 l 87 0 l 260 0 l 260 609 q 286 669 260 644 q 345 694 311 694 l 696 694 q 756 669 731 694 q 781 609 781 644 l 781 521 l 347 521 l 434 347 l 781 347 l 781 0 l 955 0 "},"ã":{"ha":1042,"x_min":87,"x_max":955,"o":"m 814 1024 l 814 1146 q 651 1061 719 1061 q 585 1076 623 1061 q 524 1102 554 1090 l 524 1102 l 524 1102 q 465 1122 517 1111 q 396 1134 413 1134 q 229 1056 319 1134 l 229 934 q 396 1021 323 1021 q 523 984 441 1021 q 649 948 606 948 q 814 1024 726 948 m 955 0 l 955 615 q 878 792 955 715 q 701 868 802 868 l 340 868 q 163 793 240 868 q 87 615 87 717 l 87 0 l 260 0 l 260 609 q 286 669 260 644 q 345 694 311 694 l 696 694 q 756 669 731 694 q 781 609 781 644 l 781 521 l 347 521 l 434 347 l 781 347 l 781 0 l 955 0 "},"ä":{"ha":1042,"x_min":87,"x_max":955,"o":"m 955 1042 q 930 1103 955 1078 q 868 1128 905 1128 q 806 1103 832 1128 q 781 1042 781 1078 q 806 980 781 1005 q 868 955 832 955 q 930 980 905 955 q 955 1042 955 1005 m 260 1042 q 235 1103 260 1078 q 174 1128 210 1128 q 112 1103 137 1128 q 87 1042 87 1078 q 112 980 87 1005 q 174 955 137 955 q 235 980 210 955 q 260 1042 260 1005 m 955 0 l 955 615 q 878 792 955 715 q 701 868 802 868 l 340 868 q 163 793 240 868 q 87 615 87 717 l 87 0 l 260 0 l 260 609 q 286 669 260 644 q 345 694 311 694 l 696 694 q 756 669 731 694 q 781 609 781 644 l 781 521 l 347 521 l 434 347 l 781 347 l 781 0 l 955 0 "},"å":{"ha":1042,"x_min":87,"x_max":955,"o":"m 608 1042 q 582 1103 608 1078 q 521 1128 557 1128 q 459 1103 484 1128 q 434 1042 434 1078 q 459 980 434 1005 q 521 955 484 955 q 582 981 556 955 q 608 1042 608 1007 m 955 0 l 955 615 q 878 792 955 715 q 701 868 802 868 l 340 868 q 163 793 240 868 q 87 615 87 717 l 87 0 l 260 0 l 260 609 q 286 669 260 644 q 345 694 311 694 l 696 694 q 756 669 731 694 q 781 609 781 644 l 781 521 l 347 521 l 434 347 l 781 347 l 781 0 l 955 0 "},"æ":{"ha":1389,"x_min":87,"x_max":1302,"o":"m 87 615 q 163 793 87 717 q 340 868 240 868 l 1302 868 l 1302 694 l 781 694 l 781 259 q 806 199 781 224 q 866 174 832 174 l 1302 174 l 1302 0 l 861 0 q 684 76 760 0 q 608 253 608 151 l 608 347 l 434 347 l 347 521 l 608 521 l 608 694 l 345 694 q 286 669 311 694 q 260 609 260 644 l 260 0 l 87 0 l 87 615 m 868 521 l 1302 521 l 1302 347 l 955 347 l 868 521 "},"ç":{"ha":1042,"x_min":87,"x_max":955,"o":"m 955 0 l 955 174 l 345 174 q 286 199 311 174 q 260 259 260 224 l 260 609 q 286 669 260 644 q 345 694 313 694 l 955 694 l 955 868 l 342 868 q 163 793 240 868 q 87 615 87 717 l 87 253 q 163 76 87 153 q 342 0 240 0 l 955 0 "},"è":{"ha":1042,"x_min":87,"x_max":955,"o":"m 585 1104 l 453 1215 l 340 1082 l 474 970 q 530 950 498 950 q 597 981 571 950 q 616 1036 616 1005 q 585 1104 616 1078 m 955 347 l 955 521 l 347 521 l 434 347 l 955 347 m 955 0 l 955 174 l 345 174 q 286 199 311 174 q 260 259 260 224 l 260 694 l 955 694 l 955 868 l 87 868 l 87 253 q 163 76 87 151 q 340 0 240 0 l 955 0 "},"é":{"ha":1042,"x_min":87,"x_max":955,"o":"m 457 1104 l 589 1215 l 701 1082 l 568 970 q 512 950 543 950 q 444 981 470 950 q 425 1036 425 1005 q 457 1104 425 1078 m 955 347 l 955 521 l 347 521 l 434 347 l 955 347 m 955 0 l 955 174 l 345 174 q 286 199 311 174 q 260 259 260 224 l 260 694 l 955 694 l 955 868 l 87 868 l 87 253 q 163 76 87 151 q 340 0 240 0 l 955 0 "},"ê":{"ha":1042,"x_min":87,"x_max":955,"o":"m 868 955 l 608 1215 l 434 1215 l 174 955 l 347 955 l 477 1085 l 564 1085 l 694 955 l 868 955 m 955 347 l 955 521 l 347 521 l 434 347 l 955 347 m 955 0 l 955 174 l 345 174 q 286 199 311 174 q 260 259 260 224 l 260 694 l 955 694 l 955 868 l 87 868 l 87 253 q 163 76 87 151 q 340 0 240 0 l 955 0 "},"ë":{"ha":1042,"x_min":87,"x_max":955,"o":"m 955 1042 q 930 1103 955 1078 q 868 1128 905 1128 q 806 1103 832 1128 q 781 1042 781 1078 q 806 980 781 1005 q 868 955 832 955 q 930 980 905 955 q 955 1042 955 1005 m 260 1042 q 235 1103 260 1078 q 174 1128 210 1128 q 112 1103 137 1128 q 87 1042 87 1078 q 112 980 87 1005 q 174 955 137 955 q 235 980 210 955 q 260 1042 260 1005 m 955 347 l 955 521 l 347 521 l 434 347 l 955 347 m 955 0 l 955 174 l 345 174 q 286 199 311 174 q 260 259 260 224 l 260 694 l 955 694 l 955 868 l 87 868 l 87 253 q 163 76 87 151 q 340 0 240 0 l 955 0 "},"ì":{"ha":347,"x_min":45,"x_max":321,"o":"m 260 0 l 260 868 l 87 868 l 87 0 l 260 0 m 290 1104 l 158 1215 l 45 1082 l 179 970 q 234 950 203 950 q 302 981 276 950 q 321 1036 321 1005 q 290 1104 321 1078 "},"í":{"ha":347,"x_min":45,"x_max":321,"o":"m 108 0 l 108 868 l 281 868 l 281 0 l 108 0 m 76 1104 l 210 1215 l 321 1082 l 189 970 q 134 950 165 950 q 66 981 92 950 q 45 1036 45 1005 q 76 1104 45 1078 "},"î":{"ha":347,"x_min":-174,"x_max":521,"o":"m 260 0 l 260 868 l 87 868 l 87 0 l 260 0 m 521 955 l 260 1215 l 87 1215 l -174 955 l 0 955 l 130 1085 l 217 1085 l 347 955 l 521 955 "},"ï":{"ha":694,"x_min":87,"x_max":608,"o":"m 434 0 l 434 868 l 260 868 l 260 0 l 434 0 m 608 1042 q 582 1103 608 1078 q 521 1128 557 1128 q 459 1103 484 1128 q 434 1042 434 1078 q 459 980 434 1005 q 521 955 484 955 q 582 980 557 955 q 608 1042 608 1005 m 260 1042 q 235 1103 260 1078 q 174 1128 210 1128 q 112 1103 137 1128 q 87 1042 87 1078 q 112 980 87 1005 q 174 955 137 955 q 235 980 210 955 q 260 1042 260 1005 "},"ð":{"ha":1042,"x_min":0,"x_max":0,"o":""},"ñ":{"ha":1042,"x_min":87,"x_max":955,"o":"m 814 1024 l 814 1146 q 651 1061 719 1061 q 585 1076 623 1061 q 524 1102 554 1090 l 524 1102 l 524 1102 q 465 1122 517 1111 q 396 1134 413 1134 q 229 1056 319 1134 l 229 934 q 396 1021 323 1021 q 523 984 441 1021 q 649 948 606 948 q 814 1024 726 948 m 955 0 l 955 615 q 879 793 955 717 q 701 868 804 868 l 87 868 l 87 0 l 260 0 l 260 694 l 696 694 q 756 669 731 694 q 781 609 781 644 l 781 0 l 955 0 "},"ò":{"ha":1042,"x_min":87,"x_max":955,"o":"m 585 1104 l 453 1215 l 340 1082 l 474 970 q 530 950 498 950 q 597 981 571 950 q 616 1036 616 1005 q 585 1104 616 1078 m 955 253 l 955 615 q 878 792 955 715 q 701 868 802 868 l 342 868 q 163 793 240 868 q 87 615 87 717 l 87 253 q 163 76 87 153 q 342 0 240 0 l 701 0 q 879 76 804 0 q 955 253 955 153 m 781 259 q 756 200 781 226 q 698 174 731 174 l 345 174 q 286 199 311 174 q 260 259 260 224 l 260 609 q 286 669 260 644 q 345 694 313 694 l 698 694 q 756 669 731 694 q 781 609 781 644 l 781 259 "},"ó":{"ha":1042,"x_min":87,"x_max":955,"o":"m 457 1104 l 589 1215 l 701 1082 l 568 970 q 512 950 543 950 q 444 981 470 950 q 425 1036 425 1005 q 457 1104 425 1078 m 955 253 l 955 615 q 878 792 955 715 q 701 868 802 868 l 342 868 q 163 793 240 868 q 87 615 87 717 l 87 253 q 163 76 87 153 q 342 0 240 0 l 701 0 q 879 76 804 0 q 955 253 955 153 m 781 259 q 756 200 781 226 q 698 174 731 174 l 345 174 q 286 199 311 174 q 260 259 260 224 l 260 609 q 286 669 260 644 q 345 694 313 694 l 698 694 q 756 669 731 694 q 781 609 781 644 l 781 259 "},"ô":{"ha":1042,"x_min":87,"x_max":955,"o":"m 868 955 l 608 1215 l 434 1215 l 174 955 l 347 955 l 477 1085 l 564 1085 l 694 955 l 868 955 m 955 253 l 955 615 q 878 792 955 715 q 701 868 802 868 l 342 868 q 163 793 240 868 q 87 615 87 717 l 87 253 q 163 76 87 153 q 342 0 240 0 l 701 0 q 879 76 804 0 q 955 253 955 153 m 781 259 q 756 200 781 226 q 698 174 731 174 l 345 174 q 286 199 311 174 q 260 259 260 224 l 260 609 q 286 669 260 644 q 345 694 313 694 l 698 694 q 756 669 731 694 q 781 609 781 644 l 781 259 "},"õ":{"ha":1042,"x_min":87,"x_max":955,"o":"m 814 1024 l 814 1146 q 651 1061 719 1061 q 585 1076 623 1061 q 524 1102 554 1090 l 524 1102 l 524 1102 q 465 1122 517 1111 q 396 1134 413 1134 q 229 1056 319 1134 l 229 934 q 396 1021 323 1021 q 523 984 441 1021 q 649 948 606 948 q 814 1024 726 948 m 955 253 l 955 615 q 878 792 955 715 q 701 868 802 868 l 342 868 q 163 793 240 868 q 87 615 87 717 l 87 253 q 163 76 87 153 q 342 0 240 0 l 701 0 q 879 76 804 0 q 955 253 955 153 m 781 259 q 756 200 781 226 q 698 174 731 174 l 345 174 q 286 199 311 174 q 260 259 260 224 l 260 609 q 286 669 260 644 q 345 694 313 694 l 698 694 q 756 669 731 694 q 781 609 781 644 l 781 259 "},"ö":{"ha":1042,"x_min":87,"x_max":955,"o":"m 955 1042 q 930 1103 955 1078 q 868 1128 905 1128 q 806 1103 832 1128 q 781 1042 781 1078 q 806 980 781 1005 q 868 955 832 955 q 930 980 905 955 q 955 1042 955 1005 m 260 1042 q 235 1103 260 1078 q 174 1128 210 1128 q 112 1103 137 1128 q 87 1042 87 1078 q 112 980 87 1005 q 174 955 137 955 q 235 980 210 955 q 260 1042 260 1005 m 955 253 l 955 615 q 878 792 955 715 q 701 868 802 868 l 342 868 q 163 793 240 868 q 87 615 87 717 l 87 253 q 163 76 87 153 q 342 0 240 0 l 701 0 q 879 76 804 0 q 955 253 955 153 m 781 259 q 756 200 781 226 q 698 174 731 174 l 345 174 q 286 199 311 174 q 260 259 260 224 l 260 609 q 286 669 260 644 q 345 694 313 694 l 698 694 q 756 669 731 694 q 781 609 781 644 l 781 259 "},"÷":{"ha":1042,"x_min":0,"x_max":0,"o":""},"ø":{"ha":1042,"x_min":87,"x_max":955,"o":"m 345 694 q 286 669 313 694 q 260 609 260 644 l 260 259 q 267 226 260 241 l 642 694 l 345 694 m 696 174 q 756 200 731 174 q 781 259 781 226 l 781 609 q 774 642 781 625 l 399 174 l 696 174 m 701 868 q 879 792 804 868 q 955 615 955 715 l 955 253 q 879 76 955 153 q 701 0 804 0 l 340 0 q 163 76 240 0 q 87 253 87 153 l 87 615 q 163 793 87 717 q 340 868 240 868 l 701 868 "},"ù":{"ha":1042,"x_min":87,"x_max":955,"o":"m 585 1104 l 453 1215 l 340 1082 l 474 970 q 530 950 498 950 q 597 981 571 950 q 616 1036 616 1005 q 585 1104 616 1078 m 781 868 l 955 868 l 955 0 l 340 0 q 163 76 240 0 q 87 253 87 151 l 87 868 l 260 868 l 260 259 q 286 199 260 224 q 345 174 311 174 l 781 174 l 781 868 "},"ú":{"ha":1042,"x_min":87,"x_max":955,"o":"m 457 1104 l 589 1215 l 701 1082 l 568 970 q 512 950 543 950 q 444 981 470 950 q 425 1036 425 1005 q 457 1104 425 1078 m 781 868 l 955 868 l 955 0 l 340 0 q 163 76 240 0 q 87 253 87 151 l 87 868 l 260 868 l 260 259 q 286 199 260 224 q 345 174 311 174 l 781 174 l 781 868 "},"û":{"ha":1042,"x_min":87,"x_max":955,"o":"m 868 955 l 608 1215 l 434 1215 l 174 955 l 347 955 l 477 1085 l 564 1085 l 694 955 l 868 955 m 781 868 l 955 868 l 955 0 l 340 0 q 163 76 240 0 q 87 253 87 151 l 87 868 l 260 868 l 260 259 q 286 199 260 224 q 345 174 311 174 l 781 174 l 781 868 "},"ü":{"ha":1042,"x_min":87,"x_max":955,"o":"m 955 1042 q 930 1103 955 1078 q 868 1128 905 1128 q 806 1103 832 1128 q 781 1042 781 1078 q 806 980 781 1005 q 868 955 832 955 q 930 980 905 955 q 955 1042 955 1005 m 260 1042 q 235 1103 260 1078 q 174 1128 210 1128 q 112 1103 137 1128 q 87 1042 87 1078 q 112 980 87 1005 q 174 955 137 955 q 235 980 210 955 q 260 1042 260 1005 m 781 868 l 955 868 l 955 0 l 340 0 q 163 76 240 0 q 87 253 87 151 l 87 868 l 260 868 l 260 259 q 286 199 260 224 q 345 174 311 174 l 781 174 l 781 868 "},"ý":{"ha":1042,"x_min":87,"x_max":955,"o":"m 457 1104 l 589 1215 l 701 1082 l 568 970 q 512 950 543 950 q 444 981 470 950 q 425 1036 425 1005 q 457 1104 425 1078 m 87 868 l 260 868 l 260 606 q 286 546 260 571 q 345 521 311 521 l 696 521 q 756 547 731 521 q 781 606 781 573 l 781 868 l 955 868 l 955 601 q 878 424 955 500 q 701 347 802 347 l 608 347 l 608 0 l 434 0 l 434 347 l 340 347 q 163 423 240 347 q 87 601 87 498 l 87 868 "},"þ":{"ha":1042,"x_min":0,"x_max":0,"o":""},"ÿ":{"ha":1042,"x_min":87,"x_max":955,"o":"m 955 1042 q 930 1103 955 1078 q 868 1128 905 1128 q 806 1103 832 1128 q 781 1042 781 1078 q 806 980 781 1005 q 868 955 832 955 q 930 980 905 955 q 955 1042 955 1005 m 260 1042 q 235 1103 260 1078 q 174 1128 210 1128 q 112 1103 137 1128 q 87 1042 87 1078 q 112 980 87 1005 q 174 955 137 955 q 235 980 210 955 q 260 1042 260 1005 m 87 868 l 260 868 l 260 606 q 286 546 260 571 q 345 521 311 521 l 696 521 q 756 547 731 521 q 781 606 781 573 l 781 868 l 955 868 l 955 601 q 878 424 955 500 q 701 347 802 347 l 608 347 l 608 0 l 434 0 l 434 347 l 340 347 q 163 423 240 347 q 87 601 87 498 l 87 868 "}}}
